<svg width="170" height="104" viewBox="0 0 170 104" fill="none" xmlns="http://www.w3.org/2000/svg">
<path d="M0.598519 8.56818L1.96216 0.454544H40.1894L38.8258 8.56818H24.5758L18.2122 47H8.48488L14.8485 8.56818H0.598519ZM33.0308 47L38.849 12.0909H48.2353L47.2126 18.1818H47.5762C48.5762 16.0152 49.9172 14.3788 51.599 13.2727C53.2959 12.1515 55.1217 11.5909 57.0762 11.5909C57.5611 11.5909 58.0687 11.6212 58.599 11.6818C59.1444 11.7273 59.6293 11.803 60.0535 11.9091L58.599 20.5227C58.1747 20.3712 57.5687 20.25 56.7808 20.1591C56.0081 20.053 55.2732 20 54.5762 20C53.1672 20 51.8566 20.3106 50.6444 20.9318C49.4323 21.5379 48.4096 22.3864 47.5762 23.4773C46.7581 24.5682 46.2202 25.8258 45.9626 27.25L42.7126 47H33.0308ZM82.1619 32.1364L85.5028 12.0909H95.1847L89.3665 47H80.071L81.1165 40.6591H80.7528C79.6771 42.7045 78.1089 44.3485 76.0483 45.5909C73.9877 46.8333 71.6468 47.4545 69.0256 47.4545C66.6922 47.4545 64.7225 46.9242 63.1165 45.8636C61.5256 44.803 60.3968 43.2955 59.7301 41.3409C59.0634 39.3864 58.9498 37.0455 59.3892 34.3182L63.1165 12.0909H72.7983L69.3892 32.5909C69.071 34.6515 69.3589 36.2803 70.2528 37.4773C71.1468 38.6742 72.5104 39.2727 74.3437 39.2727C75.5104 39.2727 76.6392 39.0076 77.7301 38.4773C78.8362 37.9318 79.7907 37.1288 80.5937 36.0682C81.3968 35.0076 81.9195 33.697 82.1619 32.1364ZM110.873 47.6818C107.282 47.6818 104.327 46.9242 102.009 45.4091C99.7059 43.8788 98.0923 41.7576 97.1681 39.0455C96.259 36.3333 96.0999 33.2121 96.6908 29.6818C97.2665 26.1061 98.4711 22.9697 100.304 20.2727C102.138 17.5606 104.464 15.447 107.282 13.9318C110.115 12.4015 113.297 11.6364 116.827 11.6364C119.873 11.6364 122.448 12.1894 124.554 13.2955C126.66 14.4015 128.206 15.9545 129.191 17.9545C130.176 19.9545 130.509 22.303 130.191 25H121.077C121.092 23.2727 120.645 21.8712 119.736 20.7955C118.827 19.7197 117.494 19.1818 115.736 19.1818C114.221 19.1818 112.827 19.5909 111.554 20.4091C110.297 21.2121 109.229 22.3864 108.35 23.9318C107.486 25.4773 106.88 27.3485 106.532 29.5455C106.168 31.7727 106.16 33.6667 106.509 35.2273C106.857 36.7879 107.524 37.9773 108.509 38.7955C109.494 39.6136 110.736 40.0227 112.236 40.0227C113.357 40.0227 114.395 39.7955 115.35 39.3409C116.32 38.8864 117.168 38.2273 117.895 37.3636C118.623 36.4848 119.183 35.4318 119.577 34.2045H128.714C128.092 36.8864 126.964 39.2348 125.327 41.25C123.706 43.2652 121.668 44.8409 119.214 45.9773C116.759 47.1136 113.979 47.6818 110.873 47.6818ZM141.265 36.9545L143.197 25.3409H144.606L158.038 12.0909H169.151L151.242 29.6364H148.924L141.265 36.9545ZM130.833 47L138.561 0.454544H148.242L140.515 47H130.833ZM152.651 47L144.924 31.7955L152.492 24.9545L163.992 47H152.651ZM19.9314 103L27.6586 56.4545H37.4995L34.3177 75.6591H54.295L57.4768 56.4545H67.295L59.5677 103H49.7495L52.9314 83.7727H32.9541L29.7723 103H19.9314ZM90.4432 88.1364L93.7841 68.0909H103.466L97.6477 103H88.3523L89.3977 96.6591H89.0341C87.9583 98.7045 86.3902 100.348 84.3295 101.591C82.2689 102.833 79.928 103.455 77.3068 103.455C74.9735 103.455 73.0038 102.924 71.3977 101.864C69.8068 100.803 68.678 99.2955 68.0114 97.3409C67.3447 95.3864 67.2311 93.0455 67.6705 90.3182L71.3977 68.0909H81.0795L77.6705 88.5909C77.3523 90.6515 77.6402 92.2803 78.5341 93.4773C79.428 94.6742 80.7917 95.2727 82.625 95.2727C83.7917 95.2727 84.9205 95.0076 86.0114 94.4773C87.1174 93.9318 88.072 93.1288 88.875 92.0682C89.678 91.0076 90.2008 89.697 90.4432 88.1364ZM103.654 103L111.381 56.4545H121.063L118.199 73.9545H118.472C119.048 73.0152 119.821 72.0606 120.79 71.0909C121.775 70.1061 122.98 69.2879 124.404 68.6364C125.828 67.9697 127.518 67.6364 129.472 67.6364C132.018 67.6364 134.252 68.303 136.177 69.6364C138.101 70.9545 139.487 72.947 140.336 75.6136C141.184 78.2652 141.275 81.5909 140.608 85.5909C139.972 89.4848 138.798 92.7727 137.086 95.4545C135.389 98.1212 133.351 100.144 130.972 101.523C128.608 102.886 126.101 103.568 123.449 103.568C121.571 103.568 120.025 103.258 118.813 102.636C117.616 102.015 116.684 101.235 116.018 100.295C115.351 99.3409 114.874 98.3788 114.586 97.4091H114.108L113.199 103H103.654ZM116.04 85.5455C115.707 87.6212 115.699 89.4318 116.018 90.9773C116.351 92.5227 116.987 93.7273 117.927 94.5909C118.881 95.4394 120.131 95.8636 121.677 95.8636C123.268 95.8636 124.677 95.4318 125.904 94.5682C127.146 93.6894 128.177 92.4773 128.995 90.9318C129.813 89.3712 130.389 87.5758 130.722 85.5455C131.04 83.5303 131.048 81.7576 130.745 80.2273C130.442 78.697 129.821 77.5 128.881 76.6364C127.942 75.7727 126.669 75.3409 125.063 75.3409C123.502 75.3409 122.101 75.7576 120.858 76.5909C119.631 77.4242 118.601 78.6061 117.768 80.1364C116.949 81.6667 116.374 83.4697 116.04 85.5455Z" fill="#01B613"/>
</svg>
